<svg xmlns="http://www.w3.org/2000/svg" viewBox="0 0 400 400" width="100%" height="auto">
  <!-- Background circles -->
  <circle cx="200" cy="200" r="180" fill="#F0EDFF" opacity="0.5"/>
  <circle cx="200" cy="200" r="150" fill="#F9F9FB" opacity="0.7"/>

  <!-- Team members -->
  <!-- Person 1 (left) -->
  <circle cx="120" cy="140" r="35" fill="#6C63FF"/>
  <circle cx="120" cy="100" r="22" fill="#6C63FF"/>
  <path d="M 100 160 L 85 220 L 105 220 L 110 180 L 130 180 L 135 220 L 155 220 L 140 160 Z" fill="#6C63FF"/>

  <!-- Person 2 (center) -->
  <circle cx="200" cy="130" r="38" fill="#00E0FF"/>
  <circle cx="200" cy="85" r="25" fill="#00E0FF"/>
  <path d="M 175 175 L 155 250 L 178 250 L 182 190 L 218 190 L 222 250 L 245 250 L 225 175 Z" fill="#00E0FF"/>

  <!-- Person 3 (right) -->
  <circle cx="280" cy="140" r="35" fill="#FF6B9D"/>
  <circle cx="280" cy="100" r="22" fill="#FF6B9D"/>
  <path d="M 260 160 L 245 220 L 265 220 L 270 180 L 290 180 L 295 220 L 315 220 L 300 160 Z" fill="#FF6B9D"/>

  <!-- Connection lines (representing collaboration) -->
  <line x1="155" y1="180" x2="175" y2="175" stroke="#6C63FF" stroke-width="3" opacity="0.5"/>
  <line x1="225" y1="175" x2="245" y2="180" stroke="#FF6B9D" stroke-width="3" opacity="0.5"/>

  <!-- Dots representing ideas/collaboration -->
  <circle cx="200" cy="280" r="8" fill="#6C63FF" opacity="0.6"/>
  <circle cx="170" cy="290" r="6" fill="#00E0FF" opacity="0.5"/>
  <circle cx="230" cy="290" r="6" fill="#FF6B9D" opacity="0.5"/>
  <circle cx="200" cy="310" r="7" fill="#FFE66D" opacity="0.4"/>

  <!-- Decorative elements -->
  <path d="M 100 320 Q 150 340 200 330 T 300 320" fill="none" stroke="#6C63FF" stroke-width="2" opacity="0.3" stroke-dasharray="5,5"/>
</svg>